<svg width="24" height="24" viewBox="0 0 24 24" fill="white" xmlns="http://www.w3.org/2000/svg">
    <path d="M11.998 9.332A2.673 2.673 0 0 0 9.33 12a2.673 2.673 0 0 0 2.668 2.668A2.673 2.673 0 0 0 14.666 12a2.673 2.673 0 0 0-2.668-2.668ZM19.999 12c0-1.105.01-2.2-.052-3.302-.062-1.281-.354-2.418-1.29-3.355-.94-.938-2.074-1.228-3.355-1.29C14.197 3.99 13.102 4 12 4c-1.105 0-2.2-.01-3.302.052-1.281.062-2.418.354-3.355 1.29-.938.94-1.228 2.074-1.29 3.355C3.99 9.803 4 10.898 4 12c0 1.103-.01 2.2.052 3.302.062 1.281.354 2.418 1.29 3.355.94.938 2.074 1.228 3.355 1.29 1.104.062 2.2.052 3.302.052 1.105 0 2.2.01 3.302-.052 1.28-.062 2.418-.354 3.354-1.29.939-.94 1.229-2.074 1.291-3.355C20.011 14.2 20 13.105 20 12Zm-8.001 4.105A4.099 4.099 0 0 1 7.893 12a4.099 4.099 0 0 1 4.105-4.105A4.099 4.099 0 0 1 16.102 12a4.099 4.099 0 0 1-4.104 4.105Zm4.273-7.42a.958.958 0 1 1 0-1.917.957.957 0 1 1 0 1.918Z"
    ></path>
</svg>