<svg width="24" height="24" viewBox="0 0 24 24" fill="white" xmlns="http://www.w3.org/2000/svg">
    <path d="M12.302 4.013c.872-.013 1.74-.005 2.606-.013.053 1.02.42 2.06 1.167 2.782.745.74 1.8 1.078 2.826 1.192v2.685c-.961-.032-1.927-.232-2.8-.646a8.107 8.107 0 0 1-1.08-.62c-.005 1.948.007 3.894-.013 5.834a5.075 5.075 0 0 1-.902 2.628c-.872 1.278-2.385 2.112-3.94 2.138-.953.054-1.906-.206-2.718-.685-1.347-.794-2.295-2.247-2.433-3.807-.017-.33-.02-.662-.008-.992A4.998 4.998 0 0 1 6.73 11.2c1.104-.962 2.65-1.42 4.099-1.149.013.988-.026 1.974-.026 2.962-.662-.214-1.435-.154-2.013.248a2.31 2.31 0 0 0-.91 1.166c-.137.338-.098.714-.09 1.073.159 1.094 1.21 2.013 2.334 1.914.744-.008 1.458-.44 1.846-1.073.125-.221.266-.448.273-.708.066-1.193.04-2.38.048-3.573.005-2.688-.008-5.368.012-8.047Z"
          ></path>
</svg>